<?xml version="1.0" encoding="UTF-8" standalone="no"?>
<!-- Created with Inkscape (http://www.inkscape.org/) -->
<svg xmlns:rdf="http://www.w3.org/1999/02/22-rdf-syntax-ns#" xmlns="http://www.w3.org/2000/svg" height="48" width="48" version="1.1" xmlns:cc="http://creativecommons.org/ns#" xmlns:xlink="http://www.w3.org/1999/xlink" xmlns:dc="http://purl.org/dc/elements/1.1/">
<defs>
<linearGradient id="linearGradient3022" y2="116.36218" gradientUnits="userSpaceOnUse" x2="131" gradientTransform="matrix(0.95285955,0,0,0.95285955,-92.360098,923.91674)" y1="131.36218" x1="131">
<stop stop-color="#CCC" offset="0"/>
<stop stop-color="#ececec" offset="1"/>
</linearGradient>
<linearGradient id="linearGradient3024" y2="85.362183" gradientUnits="userSpaceOnUse" x2="131" gradientTransform="matrix(0.95285955,0,0,0.95285955,-92.360098,923.91674)" y1="130.36218" x1="131">
<stop stop-color="#ececec" offset="0"/>
<stop stop-color="#ececec" offset="1"/>
</linearGradient>
<linearGradient id="linearGradient3038" y2="83.362183" gradientUnits="userSpaceOnUse" x2="131" gradientTransform="matrix(0.95285955,0,0,0.95285955,-92.360098,923.91674)" y1="113.36218" x1="131">
<stop stop-color="#800000" offset="0"/>
<stop stop-color="#F00" offset="1"/>
</linearGradient>
</defs>
<metadata>
<rdf:RDF>
<cc:Work rdf:about="">
<dc:format>image/svg+xml</dc:format>
<dc:type rdf:resource="http://purl.org/dc/dcmitype/StillImage"/>
<dc:title/>
</cc:Work>
</rdf:RDF>
</metadata>
<g transform="translate(0,-1004.3622)">
<path fill="url(#linearGradient3024)" d="m2.9258568,1007.1729,0,42.8787,28.5857862,0,14.292894-14.2929,0-28.5858-42.8786802,0z"/>
<rect fill-rule="evenodd" height="10.481455" width="42.878681" y="1007.1606" x="2.9258568" fill="url(#linearGradient3038)"/>
<path style="text-align:start;" fill="#b3b3b3" d="m37.347908,1021.8528-9.76681,5.9852,1.756835,3.0373,3.037239-1.5484,0,13.4591,4.972736-0.4169,0-20.5163zm-19.593174,0.7742c-1.796569,0-3.355686,0.4606-4.674967,1.3996-0.446234,0.3026-0.884626,0.6983-1.280405,1.1911-0.39579,0.4928-0.633176,0.8508-0.714645,1.0719l3.483893,2.3524c0.174611-0.4928,0.557241-0.9027,1.13152-1.2208,0.554869-0.3027,1.141135-0.4467,1.727058-0.4467,0.636358,0,1.147462,0.1713,1.578174,0.5359,0.430702,0.3648,0.655081,0.8538,0.655091,1.4592-0.00001,0.745-0.317769,1.2482-0.923083,1.4888-0.620855,0.2522-1.345952,0.3573-2.203488,0.3573-0.221177-0.015-0.420925-0.014-0.595537-0.03h-0.387099v3.6328c0.0776-0.015,0.199491-0.044,0.327545-0.059h0.714645c1.001103,0,1.792338,0.079,2.382149,0.2382,0.333691,0.1086,0.59831,0.3356,0.803975,0.6848,0.190096,0.3492,0.267982,0.7592,0.267992,1.2209-0.00001,0.6208-0.221864,1.1241-0.714645,1.4889-0.508331,0.3647-1.090709,0.5748-1.727058,0.6252-0.523844-0.035-1.106222-0.1931-1.727058-0.4764-0.442355-0.2095-0.813351-0.4754-1.13152-0.7742-0.318189-0.3026-0.527046-0.54-0.655091-0.7146l-3.335009,3.1266c0.919615,1.0515,1.989743,1.8285,3.215901,2.3523,1.206759,0.5239,2.533644,0.7742,3.930546,0.7742,2.258296,0,3.974396-0.5007,5.181174-1.5484,0.333682-0.2871,0.678703-0.6575,1.012413-1.1017,0.333691-0.4443,0.608687-0.9599,0.833752-1.5187,0.205637-0.5548,0.297759-1.1645,0.297769-1.8163-0.00001-0.9235-0.236119-1.8199-0.744422-2.7395-0.508322-0.9235-1.155571-1.585-1.935496-1.9652,0.03103-0.015,0.203531-0.1751,0.506207-0.4467,0.287125-0.2678,0.546608-0.6491,0.833752-1.1613,0.267725-0.4889,0.46874-1.0843,0.56576-1.7866,0.03106-0.2367,0.02977-0.4741,0.02978-0.7147-0.000009-0.9196-0.236118-1.7666-0.744421-2.531-0.65189-0.9352-1.537792-1.646-2.620364-2.1737-1.094245-0.5083-2.204603-0.7742-3.364785-0.7742z"/>
<path stroke-linejoin="round" d="m31.511644,1050.0516,14.292893-14.2929-14.292893,0,0,14.2929z" stroke="#666" stroke-linecap="butt" stroke-width="0.99999994px" fill="url(#linearGradient3022)"/>
<path stroke-linejoin="miter" d="m2.9258568,1007.1729,0,42.8787,28.5857872,0,14.292893-14.2929,0-28.5858-42.8786802,0z" stroke="#666" stroke-linecap="butt" stroke-width="0.99999994px" fill="none"/>
</g>
</svg>
