<?xml version="1.0" encoding="UTF-8" standalone="no"?>
<!-- Created with Inkscape (http://www.inkscape.org/) -->
<svg xmlns:rdf="http://www.w3.org/1999/02/22-rdf-syntax-ns#" xmlns="http://www.w3.org/2000/svg" xmlns:osb="http://www.openswatchbook.org/uri/2009/osb" height="48" width="48" version="1.1" xmlns:cc="http://creativecommons.org/ns#" xmlns:xlink="http://www.w3.org/1999/xlink" xmlns:dc="http://purl.org/dc/elements/1.1/">
<defs>
<pattern id="pattern5283" xlink:href="#pattern5280" patternTransform="matrix(2.0058426,0,0,2.0058426,51.315045,1001.423)"/>
<pattern id="pattern5280" xlink:href="#pattern5262" patternTransform="matrix(2.0058426,0,0,2.0058426,-1.9484551,-2.9882)"/>
<pattern id="pattern5262" xlink:href="#Checkerboard" patternTransform="matrix(2.0058426,0,0,2.0058426,-1.9484551,1001.374)"/>
<pattern id="Checkerboard" height="2" width="2" patternUnits="userSpaceOnUse" patternTransform="translate(0,0) scale(10,10)" fill="#000">
<rect height="1" width="1" y="0" x="0"/>
<rect height="1" width="1" y="1" x="1"/>
</pattern>
<filter id="filter4230" height="1.4035275" width="1.1707887" y="-0.20176376" x="-0.085394361">
<feGaussianBlur stdDeviation="0.74608875"/>
</filter>
<linearGradient id="linearGradient5743" y2="1028.3622" gradientUnits="userSpaceOnUse" x2="11.999999" gradientTransform="matrix(0.22946779,0.22946814,-0.35024031,0.35024085,382.79707,666.81095)" y1="1028.3622" x1="-1.4901161E-8">
<stop stop-color="#92948e" offset="0"/>
<stop stop-color="#adaba8" offset="1"/>
</linearGradient>
</defs>
<metadata>
<rdf:RDF>
<cc:Work rdf:about="">
<dc:format>image/svg+xml</dc:format>
<dc:type rdf:resource="http://purl.org/dc/dcmitype/StillImage"/>
<dc:title/>
</cc:Work>
</rdf:RDF>
</metadata>
<g fill-rule="nonzero" transform="translate(0,-1004.3622)" stroke-dasharray="none" stroke-miterlimit="4">
<path opacity="0.31300815" stroke-linejoin="bevel" d="m23.760664,1031.0046-0.03125,0.031-10.4375,6.5625,1.4375,2.2813,9.03125-5.6875,9.0625,5.6875,1.4375-2.2813-10.4375-6.5625-0.0625-0.031z" transform="matrix(0.81214909,0,0,1.0498895,4.6901086,-52.755209)" stroke-dashoffset="0" filter="url(#filter4230)" stroke="#000" stroke-linecap="butt" stroke-width="0.43318194" fill="#000"/>
<path stroke-linejoin="bevel" d="m16.988203,1018.6881-2.662316,2.6623,6.930108,7.0118-6.930108,7.0118,2.662316,2.6623,7.011797-6.9301,7.011797,6.9301,2.662316-2.6623-6.930108-7.0118,6.930108-7.0118-2.662316-2.6623l-7.011797,6.9301z" stroke-dashoffset="0" stroke="#3c3c3c" stroke-linecap="butt" stroke-width="0.40000001" fill="url(#linearGradient5743)"/>
<path opacity="0.20754718" d="m16.982248,1018.6924-2.656248,2.6563,6.906248,7-6.906248,7.0312,2.656248,2.6563,7-6.9375,7.03125,6.9375,2.656251-2.6563-6.937501-7.0312,6.937501-7-2.656251-2.6563-7.03125,6.9375-7-6.9375z" stroke="#000" stroke-width="0.40000001" fill="url(#pattern5283)"/>
</g>
</svg>
