<?xml version="1.0" encoding="UTF-8" standalone="no"?>
<!-- Created with Inkscape (http://www.inkscape.org/) -->
<svg xmlns:rdf="http://www.w3.org/1999/02/22-rdf-syntax-ns#" xmlns="http://www.w3.org/2000/svg" xmlns:osb="http://www.openswatchbook.org/uri/2009/osb" height="48" width="48" version="1.1" xmlns:cc="http://creativecommons.org/ns#" xmlns:xlink="http://www.w3.org/1999/xlink" xmlns:dc="http://purl.org/dc/elements/1.1/">
<defs>
<filter id="filter4230" height="1.4035275" width="1.1707887" y="-0.20176376" x="-0.085394361">
<feGaussianBlur stdDeviation="0.74608875"/>
</filter>
<linearGradient id="linearGradient5743" y2="1028.3622" gradientUnits="userSpaceOnUse" x2="11.999999" gradientTransform="matrix(0.22946779,0.22946814,-0.35024031,0.35024085,382.79707,666.81095)" y1="1028.3622" x1="-1.4901161E-8">
<stop stop-color="#a6a8a2" offset="0"/>
<stop stop-color="#c1bfbc" offset="1"/>
</linearGradient>
</defs>
<metadata>
<rdf:RDF>
<cc:Work rdf:about="">
<dc:format>image/svg+xml</dc:format>
<dc:type rdf:resource="http://purl.org/dc/dcmitype/StillImage"/>
<dc:title/>
</cc:Work>
</rdf:RDF>
</metadata>
<g stroke-linejoin="bevel" stroke-linecap="butt" stroke-miterlimit="4" fill-rule="nonzero" stroke-dasharray="none" transform="translate(0,-1004.3622)" stroke-dashoffset="0">
<path opacity="0.31300815" d="m23.760664,1031.0046-0.03125,0.031-10.4375,6.5625,1.4375,2.2813,9.03125-5.6875,9.0625,5.6875,1.4375-2.2813-10.4375-6.5625-0.0625-0.031z" transform="matrix(0.81214909,0,0,1.0498895,4.6901086,-52.755209)" filter="url(#filter4230)" stroke="#000" stroke-width="0.43318194" fill="#000"/>
<path d="m16.988203,1018.6881-2.662316,2.6623,6.930108,7.0118-6.930108,7.0118,2.662316,2.6623,7.011797-6.9301,7.011797,6.9301,2.662316-2.6623-6.930108-7.0118,6.930108-7.0118-2.662316-2.6623l-7.011797,6.9301z" stroke="#3c3c3c" stroke-width="0.40000001" fill="url(#linearGradient5743)"/>
</g>
</svg>
