<?xml version="1.0" encoding="UTF-8" standalone="no"?>
<!-- Created with Inkscape (http://www.inkscape.org/) -->
<svg xmlns:rdf="http://www.w3.org/1999/02/22-rdf-syntax-ns#" xmlns="http://www.w3.org/2000/svg" height="48px" width="48px" version="1.1" xmlns:cc="http://creativecommons.org/ns#" xmlns:xlink="http://www.w3.org/1999/xlink" xmlns:dc="http://purl.org/dc/elements/1.1/">
<defs>
<radialGradient id="radialGradient3564" gradientUnits="userSpaceOnUse" cy="30.857143" cx="22.571428" gradientTransform="matrix(1.000000,0.000000,0.000000,0.651376,4.792388e-15,10.75754)" r="15.571428">
<stop stop-color="#000" offset="0"/>
<stop stop-color="#000" stop-opacity="0" offset="1"/>
</radialGradient>
<linearGradient id="linearGradient5739">
<stop stop-color="#c4a000" offset="0"/>
<stop stop-color="#c4a000" stop-opacity="0" offset="1"/>
</linearGradient>
<linearGradient id="linearGradient7988" y2="30.140831" xlink:href="#linearGradient5739" gradientUnits="userSpaceOnUse" x2="10.146956" gradientTransform="matrix(0.866026,-0.500000,0.797491,1.381294,-15.69909,-9.225099)" y1="38.828144" x1="9.1053896"/>
<linearGradient id="linearGradient7990" y2="29.909071" xlink:href="#linearGradient5739" gradientUnits="userSpaceOnUse" x2="18.485983" gradientTransform="matrix(0.866026,-0.500000,0.797961,1.382110,-15.72934,-9.277499)" y1="39.252983" x1="19.616243"/>
<linearGradient id="linearGradient7992" y2="29" xlink:href="#linearGradient5739" gradientUnits="userSpaceOnUse" x2="14.045431" gradientTransform="matrix(0.866026,-0.500000,0.843479,1.460948,-19.74053,-11.13423)" y1="36.96777" x1="15.096997"/>
<linearGradient id="linearGradient7994" y2="29" xlink:href="#linearGradient5739" gradientUnits="userSpaceOnUse" x2="14.045431" gradientTransform="matrix(0.866026,-0.500000,0.801305,1.387900,-12.81830,-11.14456)" y1="37.57589" x1="14.045431"/>
<linearGradient id="linearGradient7996" y2="29" xlink:href="#linearGradient5739" gradientUnits="userSpaceOnUse" x2="14.045431" gradientTransform="matrix(0.866026,-0.500000,0.861487,1.492140,-17.87951,-13.91085)" y1="34.010502" x1="16.92873"/>
<linearGradient id="linearGradient11653" y2="17.110941" gradientUnits="userSpaceOnUse" x2="16.870909" gradientTransform="matrix(0.965926,0.262102,-0.258819,0.978177,2.957072,-5.939741)" y1="12.363223" x1="12.233433">
<stop stop-color="#c17d10" offset="0"/>
<stop stop-color="#9b650c" offset="1"/>
</linearGradient>
<linearGradient id="linearGradient15309" y2="27.234833" gradientUnits="userSpaceOnUse" x2="2.0069747" gradientTransform="matrix(1.176700,2.237102e-17,2.319843e-17,1.176702,-0.819769,-5.307055)" y1="28.122555" x1="10.615304">
<stop stop-color="#b30000" offset="0"/>
<stop stop-color="#ff5c5c" offset="0.5"/>
<stop stop-color="#c30000" offset="1"/>
</linearGradient>
<linearGradient id="linearGradient8582" y2="16.234594" gradientUnits="userSpaceOnUse" x2="17.774033" gradientTransform="matrix(1.014891,0.000000,0.000000,1.005920,-0.331699,-0.140188)" y1="19.591736" x1="11.996646">
<stop stop-color="#dac203" offset="0"/>
<stop stop-color="#fdec69" offset="0.5"/>
<stop stop-color="#fdef7e" offset="1"/>
</linearGradient>
<radialGradient id="radialGradient9318" gradientUnits="userSpaceOnUse" cy="19.540945" cx="20.764477" gradientTransform="matrix(0.449398,-0.216492,0.564416,1.171617,-1.432288,2.546108)" r="14.799585">
<stop stop-color="#fef088" offset="0"/>
<stop stop-color="#fde63a" offset="0.5"/>
<stop stop-color="#dac203" offset="1"/>
</radialGradient>
<linearGradient id="linearGradient2249" y2="14.200403" gradientUnits="userSpaceOnUse" x2="14.766725" y1="6.952559" x1="9.5621576">
<stop stop-color="#FFF" offset="0"/>
<stop stop-color="#FFF" stop-opacity="0" offset="1"/>
</linearGradient>
</defs>
<metadata>
<rdf:RDF>
<cc:Work rdf:about="">
<dc:format>image/svg+xml</dc:format>
<dc:type rdf:resource="http://purl.org/dc/dcmitype/StillImage"/>
<dc:title/>
<dc:creator>
<cc:Agent>
<dc:title>Andreas Nilsson</dc:title>
</cc:Agent>
</dc:creator>
<dc:source>http://www.tango-project.org</dc:source>
<dc:subject>
<rdf:Bag>
<rdf:li>clear</rdf:li>
<rdf:li>reset</rdf:li>
<rdf:li>blank</rdf:li>
<rdf:li>edit</rdf:li>
</rdf:Bag>
</dc:subject>
<cc:license rdf:resource="http://creativecommons.org/licenses/publicdomain/"/>
<dc:contributor>
<cc:Agent>
<dc:title>Jakub Steiner (although minimally ;)</dc:title>
</cc:Agent>
</dc:contributor>
</cc:Work>
<cc:License rdf:about="http://creativecommons.org/licenses/publicdomain/">
<cc:permits rdf:resource="http://creativecommons.org/ns#Reproduction"/>
<cc:permits rdf:resource="http://creativecommons.org/ns#Distribution"/>
<cc:permits rdf:resource="http://creativecommons.org/ns#DerivativeWorks"/>
</cc:License>
</rdf:RDF>
</metadata>
<path opacity="0.47368421" style="marker-end:none;color:#000000;marker-start:none;marker-mid:none;" d="M38.142857,30.857143a15.571428,10.142858,0,1,1,-31.142857,0,15.571428,10.142858,0,1,1,31.142857,0z" fill-rule="nonzero" transform="matrix(1.435780,0.000000,0.000000,0.825704,-5.050460,13.43182)" fill="url(#radialGradient3564)"/>
<path stroke-linejoin="miter" d="M6.9163118,1.7780186c1.7297758-0.8780595,4.1259252,0.0034965,5.0117902,1.5573199l4.170239,9.4847145c0.885865,1.55382,0.633416,3.369304-0.566029,4.070586-1.199445,0.701283-2.878233,0.014941-3.764099-1.538881l-5.9184628-8.3557275c-0.8858648-1.5538239-0.6289966-4.3573218,1.0665616-5.2180119z" fill-rule="evenodd" stroke-dashoffset="0.0000000" stroke="#8f5902" stroke-linecap="round" stroke-miterlimit="4.0000000" stroke-width="1.0063211" fill="url(#linearGradient11653)"/>
<path opacity="0.42307691" stroke-linejoin="miter" d="M7.4462701,2.7359104c1.421953-0.7858198,2.8207049-0.1927411,3.6952979,1.3393877l4.448138,10.0867249-2.431521,1.419862-6.2966109-8.8203359c-0.874593-1.5321286-0.876247-3.2182725,0.584696-4.0256387z" stroke-dashoffset="0" stroke="url(#linearGradient2249)" stroke-linecap="round" stroke-miterlimit="4" stroke-width="1.00569046" fill="none"/>
<path stroke-linejoin="miter" d="M14.780848,22.793567c-0.795495,4.286835,0.633966,13.952501,6.259233,19.693997,4.346754,0.141291,13.990091-3.417681,20.531095-10.197038-9.236176-4.51671-15.536529-15.722977-20.435307-13.282674l-6.355021,3.785715z" fill-rule="evenodd" stroke="#c4a000" stroke-linecap="butt" stroke-miterlimit="4" stroke-dasharray="none" stroke-width="1.00000048" fill="url(#radialGradient9318)"/>
<path stroke-linejoin="miter" d="M16.338359,24.367274c2.349016,6.270271,2.489443,12.788302,7.183783,17.919884" stroke="url(#linearGradient7988)" stroke-linecap="round" stroke-miterlimit="4.0000000" stroke-dasharray="none" stroke-width="0.99999988" fill="none"/>
<path opacity="0.46153846" stroke-linejoin="miter" d="M15.91878,23.414124c-0.912093,0.508104-0.160379,12.520214,5.584254,18.000367,7.385986-0.186897,15.523716-6.396187,18.392952-8.837846-9.499416-5.984122-14.924803-14.761769-18.48079-12.573584l-5.496416,3.411063z" stroke="#FFF" stroke-linecap="butt" stroke-miterlimit="4.0000000" stroke-dasharray="none" stroke-width="0.99999976" fill="none"/>
<path stroke-linejoin="miter" d="M23.848485,22.273332c0.866361-0.749,5.75002,6.087667,14.998501,12.381801" stroke="url(#linearGradient7990)" stroke-linecap="round" stroke-miterlimit="4.0000000" stroke-dasharray="none" stroke-width="0.99999970" fill="none"/>
<path stroke-linejoin="miter" d="M18.012893,22.863921c3.71231,5.347495,2.96299,12.424255,8.840816,18.08111" stroke="url(#linearGradient7992)" stroke-linecap="round" stroke-miterlimit="4.0000000" stroke-dasharray="none" stroke-width="1.0000002" fill="none"/>
<path stroke-linejoin="miter" d="M22.983898,22.775821s8.17673,13.071629,11.181934,15.104561" stroke="url(#linearGradient7994)" stroke-linecap="round" stroke-miterlimit="4.0000000" stroke-dasharray="none" stroke-width="1.0000002" fill="none"/>
<path stroke-linejoin="miter" d="M19.300308,22.200695c3.447146,2.916815,8.702557,14.163188,11.310014,17.47775" stroke="url(#linearGradient7996)" stroke-linecap="round" stroke-miterlimit="4.0000000" stroke-dasharray="none" stroke-width="1.0000001" fill="none"/>
<path stroke-linejoin="round" d="M8.5089452,18.061866l11.4616708-6.558906c0.59865,2.382571-0.34184,3.240585,1.79595,7.147713l-7.910292,4.52664c-1.453428-3.47742-3.564886-3.410298-5.3473288-5.115447z" fill-rule="evenodd" stroke-dashoffset="0.0000000" stroke="#c4a000" stroke-linecap="round" stroke-miterlimit="4.0000000" stroke-dasharray="none" stroke-width="1.0103954" fill="url(#linearGradient8582)"/>
<path opacity="0.24725272" stroke-linejoin="miter" d="M14.043449,21.245689c-0.813961-1.421217-2.562313-2.236342-3.679319-3.127229l8.757422-4.933738c-0.019593,1.480968,0.566905,3.088206,0.875611,4.518667l-5.953714,3.5423z" stroke="#FFF" stroke-linecap="butt" stroke-miterlimit="4.0000000" stroke-dasharray="none" stroke-width="1.0000000" fill="none"/>
<rect stroke-linejoin="miter" stroke-dasharray="none" transform="matrix(0.866025,-0.500001,0.500000,0.866026,0.000000,0.000000)" fill-rule="evenodd" stroke-dashoffset="0" rx="0.99999738" ry="0.99999803" height="3.4598906" width="13.015023" stroke="#690000" stroke-linecap="round" stroke-miterlimit="4" y="24.174778" x="-1.4127867" stroke-width="0.99999803" fill="url(#linearGradient15309)"/>
<path stroke-linejoin="round" d="M-17.172594,4.0836182a2.1465743,2.1465743,0,1,1,-4.293148,0,2.1465743,2.1465743,0,1,1,4.293148,0z" fill-rule="evenodd" transform="matrix(0.583557,0.156364,-0.156364,0.583557,20.45782,5.158782)" stroke-dashoffset="0" stroke="#8f5902" stroke-linecap="round" stroke-miterlimit="4" stroke-dasharray="none" stroke-width="1.65524161" fill="#FFF"/>
<path opacity="0.31730769" d="M27.734834,40.555239s1.506584-0.500648,2.176098-0.941755c-1.237437-1.944544-3.403341-5.895665-5.403126-8.87592,1.193243,6.540738,3.227028,9.817675,3.227028,9.817675z" fill-rule="evenodd" fill="#FFF"/>
<path opacity="0.31730769" d="M31.141805,39.05827l2.025998-1.08517c-1.944544-1.856155-7.468497-10.115898-7.468497-10.115898l5.442499,11.201068z" fill-rule="evenodd" fill="#FFF"/>
<path opacity="0.31730769" d="M35.658522,36.387809l2.436371-1.743752c-3.181981-1.325825-11.58654-9.880449-11.58654-9.880449,2.382935,3.011895,6.767234,8.612306,9.150169,11.624201z" fill-rule="evenodd" fill="#FFF"/>
<path opacity="0.31730769" d="M39.153689,33.917208l1.692313-1.409508c-3.314563-1.502602-12.495677-9.912017-12.495677-9.912017s6.074587,9.200205,10.803364,11.321525z" fill-rule="evenodd" fill="#FFF"/>
<path opacity="0.31730766" d="M24.376076,41.571705s1.197225-0.279677,2.043516-0.455619c-1.458408-1.237437-3.801089-4.437257-5.093767-8.610755,0.530331,6.894292,3.050251,9.066374,3.050251,9.066374z" fill-rule="evenodd" fill="#FFF"/>
<path opacity="0.31730766" d="M21.370872,41.969452s1.24802-0.013676,1.24802-0.013676c-2.298097-2.519069-3.138175-5.365335-4.430854-9.40625-0.132581,4.684583,3.182834,9.419926,3.182834,9.419926z" fill-rule="evenodd" fill="#FFF"/>
</svg>
