<?xml version="1.0" encoding="UTF-8" standalone="no"?>
<!-- Created with Inkscape (http://www.inkscape.org/) -->
<svg xmlns:rdf="http://www.w3.org/1999/02/22-rdf-syntax-ns#" xmlns="http://www.w3.org/2000/svg" xmlns:osb="http://www.openswatchbook.org/uri/2009/osb" height="48" width="48" version="1.1" xmlns:cc="http://creativecommons.org/ns#" xmlns:xlink="http://www.w3.org/1999/xlink" xmlns:dc="http://purl.org/dc/elements/1.1/">
<defs>
<linearGradient id="linearGradient5410" y2="24" gradientUnits="userSpaceOnUse" x2="36.418751" y1="24" x1="11.9875">
<stop stop-color="#3c3c3c" offset="0"/>
</linearGradient>
<linearGradient id="linearGradient5416" y2="24" gradientUnits="userSpaceOnUse" x2="36.418751" y1="24" x1="11.9875">
<stop stop-color="#a6a8a2" offset="0"/>
<stop stop-color="#c1bfbc" offset="1"/>
</linearGradient>
<filter id="filter5446" height="2.7345973" width="1.3174426" y="-0.86729866" x="-0.15872132">
<feGaussianBlur stdDeviation="4.5285796"/>
</filter>
</defs>
<metadata>
<rdf:RDF>
<cc:Work rdf:about="">
<dc:format>image/svg+xml</dc:format>
<dc:type rdf:resource="http://purl.org/dc/dcmitype/StillImage"/>
<dc:title/>
</cc:Work>
</rdf:RDF>
</metadata>
<g transform="translate(0,-1004.3622)">
<path d="m62.54583,34.013901c0,3.46049-15.328861,6.265772-34.237969,6.265772-18.9091075,0-34.2379681-2.805282-34.2379681-6.265772s15.3288606-6.265772,34.2379681-6.265772c18.909108,0,34.237969,2.805282,34.237969,6.265772z" fill-rule="nonzero" fill-opacity="0.22745098" transform="matrix(0.31935004,0,0,0.17029595,14.959883,1034.5145)" filter="url(#filter5446)" fill="#000"/>
<path stroke-linejoin="miter" d="M24,12.1875c-6.51696,0-11.8125,5.29554-11.8125,11.8125s5.29554,11.8125,11.8125,11.8125c3.795418,0,7.181673-1.806258,9.34375-4.59375l-1.40625-0.84375-3-1.6875c-1.242361,1.309262-2.995058,2.125-4.9375,2.125-3.755536,0-6.8125-3.056964-6.8125-6.8125s3.056964-6.8125,6.8125-6.8125c1.67472,0,3.187834,0.61876,4.375,1.625l-4.0625,2.40625,4.875,1.1875,4.75,1.3125,1.0625-4.8125,1.21875-4.84375-3.4375,2.09375c-2.164708-2.419327-5.286023-3.96875-8.78125-3.96875z" stroke-dashoffset="328.38001251000002867" transform="translate(0,1004.3622)" stroke="url(#linearGradient5410)" stroke-linecap="butt" stroke-miterlimit="4" stroke-dasharray="none" stroke-width="0.40000000000000002" fill="url(#linearGradient5416)"/>
</g>
</svg>
