<?xml version="1.0" encoding="UTF-8" standalone="no"?>
<!-- Created with Inkscape (http://www.inkscape.org/) -->
<svg xmlns:rdf="http://www.w3.org/1999/02/22-rdf-syntax-ns#" xmlns="http://www.w3.org/2000/svg" height="48" width="48" version="1.0" xmlns:cc="http://creativecommons.org/ns#" xmlns:xlink="http://www.w3.org/1999/xlink" xmlns:dc="http://purl.org/dc/elements/1.1/">
<metadata>
<rdf:RDF>
<cc:Work rdf:about="">
<dc:format>image/svg+xml</dc:format>
<dc:type rdf:resource="http://purl.org/dc/dcmitype/StillImage"/>
<dc:title/>
</cc:Work>
</rdf:RDF>
</metadata>
<defs>
<linearGradient id="G3" y2="34.826122" gradientUnits="userSpaceOnUse" x2="24.030643" y1="7.0243196" x1="14.660452">
<stop stop-color="#fcf9fb" offset="0"/>
<stop stop-color="#fcf9fb" stop-opacity="0" offset="1"/>
</linearGradient>
<radialGradient id="R0" gradientUnits="userSpaceOnUse" cy="22" cx="24" gradientTransform="matrix(1,-0.2,0.2,1,-3.8,6.8)" r="22">
<stop stop-color="#e6cf00" offset="0"/>
<stop stop-color="#fde94a" offset="1"/>
</radialGradient>
<radialGradient id="R1" gradientUnits="userSpaceOnUse" cy="25.53125" cx="17.3125" gradientTransform="matrix(2.4,0,0,0.67,-17.1,22.4)" r="9.6875">
<stop stop-color="#000" stop-opacity="0.63" offset="0"/>
<stop stop-color="#000" stop-opacity="0" offset="1"/>
</radialGradient>
</defs>
<path opacity="0.5" fill="url(#R1)" d="M47,39.5c0,3.58967-10.297448,6.5-23,6.5-12.702551,0-23-2.91033-23-6.5,0-3.59,10.297449-7.5,23-7.5,12.702552,0,23,3.909969,23,7.5z"/>
<path fill="url(#R0)" d="M37.310531,41.5l-13.279887-6.673879-13.295543,6.645327,2.554307-14.102362-10.7382445-10.000742,14.8585385-2.042043,6.658939-12.826301,6.628775,12.840488,14.853695,2.073761-10.761729,9.97779,2.521149,14.107961z" stroke="#c4a000"/>
<path opacity="0.8" fill="url(#G3)" d="M17.731857,15.79089l6.331883-12.2040705,6.305712,12.2079845,14.070696,1.966694-3.619753,3.360009c-16.4375-3.6875-9.455375,7.220474-27.568647,9.243214l0.568051-3.180397-10.1593472-9.465636s14.0714052-1.927798,14.0714052-1.927798z"/>
<path opacity="0.68999999" d="M35.973752,39.712833l-11.945419-6.003447-11.945802,5.96894,2.280237-12.669783-9.5851284-8.938294,13.2784364-1.822328,6.006716-11.5695684,5.98244,11.5773884,13.277727,1.857319-9.609256,8.921725,2.260049,12.678048z" stroke="#FFF" fill="none"/>
</svg>
