<?xml version="1.0" encoding="UTF-8" standalone="no"?>
<!-- Created with Inkscape (http://www.inkscape.org/) -->
<svg xmlns:rdf="http://www.w3.org/1999/02/22-rdf-syntax-ns#" xmlns="http://www.w3.org/2000/svg" height="690.24652" width="643.23822" version="1.1" xmlns:cc="http://creativecommons.org/ns#" xmlns:xlink="http://www.w3.org/1999/xlink" xmlns:dc="http://purl.org/dc/elements/1.1/">
<defs></defs>
<metadata>
<rdf:RDF>
<cc:Work rdf:about="">
<dc:format>image/svg+xml</dc:format>
<dc:type rdf:resource="http://purl.org/dc/dcmitype/StillImage"/>
<dc:title/>
</cc:Work>
</rdf:RDF>
</metadata>
<path stroke-linejoin="bevel" d="m470.21478,617.54994c15.03272,1.94555,32.40306-5.67112,37.92609-40.80021,5.52304-35.12911-3.62335-59.79218-20.06576-62.12839,0,0-91.55312-9.78914-107.5089,11.34598s43.68577,73.19453,42.87405,83.17031z" stroke-dashoffset="0" stroke="#e6e8e7" stroke-miterlimit="4" stroke-dasharray="none" stroke-width="13.90000000000000036" fill="#000"/>
<path stroke-linejoin="bevel" d="m454.94668,563.78378c1.28933,14.92511,8.00207,26.20417,17.27864,26.391,7.24588,1.30283,15.22261-10.43484,11.37874-23.91852-9.60324-0.71712-19.91377,0.0574-28.65739-2.47248z" stroke-dashoffset="0" stroke="#e6e8e7" stroke-miterlimit="4" stroke-dasharray="none" stroke-width="13.90000000000000036" fill="#000"/>
<path stroke-linejoin="bevel" d="m443.22133,123.53098-1.3254,50.83362c19.19981,0.42991,63.47125,6.72785,64.91947,6.93416-10.73051-1.54955-13.99187-12.60964-14.68872-25.90117-0.76026-14.50122,6.27533-30.37367,22.59018-30.08208v-0.0255s-63.63048,1.00881-71.49553-1.75904zm63.59407,57.76778c0.0239,0.003,0.48428,0.0765,0.48428,0.0765v-0.0255c-0.16059-0.0189-0.32465-0.0279-0.48428-0.051z" stroke-dashoffset="0" stroke="#e6e8e7" stroke-miterlimit="4" stroke-dasharray="none" stroke-width="13.90000000000000036" fill="#000"/>
<path stroke-linejoin="bevel" d="m515.7364,72.416942c-1.95453,0.0049-3.95186,0.09752-6.0153,0.280426l-76.15994,26.156111-4.48599,87.085071,131.08787,12.05832v-8.76969l8.33478-12.03283c11.89469-47.57186-2.55832-104.899213-52.76142-104.777408z" stroke-dashoffset="0" stroke="#e6e8e7" stroke-miterlimit="4" stroke-dasharray="none" stroke-width="13.90000000000000036" fill="#000"/>
<path stroke-linejoin="bevel" d="m509.77208,72.697368c-168.10845,6.181384-278.44935,14.439038-382.76232,11.522965-8.441,2.572064-15.23205,6.833538-20.54381,12.160297l16.74601,0.790292-20.7987,3.849488c-23.361956,30.56342-7.885816,86.44087,24.5965,89.02255,129.2668-3.77848,257.83995,4.20149,382.76232,11.54846-44.29267-12.01578-48.51075-113.026941,0-128.894052z" stroke-dashoffset="0" stroke="#e6e8e7" stroke-miterlimit="4" stroke-dasharray="none" stroke-width="13.90000000000000036" fill="#000"/>
<path stroke-linejoin="bevel" d="m416.50211,505.98673-9.60729,68.80797c19.08202,2.23529,62.21698,14.58436,63.62799,14.98873-10.45129-3.02442-11.90191-18.30078-10.43069-36.38189,1.60512-19.7267,11.21023-40.64164,27.43702-38.8422-21.04091-4.11187-52.40125-0.87906-71.43907-3.62821zm54.02069,83.7967c0.0233,0.007,0.4706,0.14539,0.4706,0.14539l0.004-0.0346c-0.15713-0.0393-0.3193-0.0657-0.47477-0.11078z" stroke-dashoffset="0" stroke="#e6e8e7" stroke-miterlimit="4" stroke-dasharray="none" stroke-width="13.90000000000000036" fill="#000"/>
<path stroke-linejoin="bevel" d="M509.7211,72.690548c66.02979-5.853119,79.15636,83.405422,48.11544,132.196252-65.52883,102.99966-182.38874,405.0462-84.76441,412.92304l-359.17079-17.18975c-118.294863-10.8301,31.62684-328.08276,76.90275-418.38124z" stroke-dashoffset="0" stroke="#e6e8e7" stroke-miterlimit="4" stroke-dasharray="none" stroke-width="13.90000000000000036" fill="#000"/>
<path stroke-linejoin="bevel" d="m509.82159,201.5872c15.14752,0.47345,31.47391-6.18056,32.76391-32.172,1.29-25.99143-10.72671-43.41897-27.31952-44.08882-16.59282-0.66984-80.42601,0.53678-79.65708,15.2033,5.49417,51.61998,74.21269,61.05752,74.21269,61.05752z" stroke-dashoffset="0" stroke="#e6e8e7" stroke-miterlimit="4" stroke-dasharray="none" stroke-width="13.90000000000000036" fill="#000"/>
<path stroke-linejoin="bevel" d="m485.08267,163.61827c3.05945,10.81384,11.06511,18.62456,20.2916,18.17671,7.34476,0.49469,13.85929-8.57597,8.43716-18.17671-9.61387,0.0814-19.75159,1.29607-28.72876,0z" stroke-dashoffset="0" stroke="#e6e8e7" stroke-miterlimit="4" stroke-dasharray="none" stroke-width="13.90000000000000036" fill="#000"/>
<path stroke-linejoin="bevel" d="m438.40118,174.79239c18.69512,0.42318,61.80286,6.62226,63.21302,6.82534-10.44844-1.52524-13.62409-12.41172-14.30263-25.49461,0.23758-21.63917,10.95698-28.78969,22.88987-30.53831,0,0-61.66009,1.49483-69.31839,2.38384zm63.21302,6.82534c0.0232,0.003,0.47155,0.0752,0.47155,0.0752v-0.0251c-0.15637-0.0185-0.31612-0.0275-0.47155-0.0502z" stroke-dashoffset="0" stroke="#e6e8e7" stroke-miterlimit="4" stroke-dasharray="none" stroke-width="13.90000000000000036" fill="#000"/>
<path stroke-linejoin="bevel" d="m127.00248,84.227503c104.31296,2.916074,214.67206-5.355564,382.7805-11.536947-48.51074,15.867111-44.29266,116.878274,0,128.894054-124.92237-7.34697-253.51372-15.31543-382.7805-11.53695-40.472174-3.21672-54.57726-89.18989,0-105.820157z" stroke-dashoffset="0" stroke="#e6e8e7" stroke-miterlimit="4" stroke-dasharray="none" stroke-width="13.90000000000000036" fill="#000"/>
</svg>
